<?xml version="1.0" encoding="iso-8859-1"?>
<!-- Generator: Adobe Illustrator 16.0.0, SVG Export Plug-In . SVG Version: 6.00 Build 0)  -->
<!DOCTYPE svg PUBLIC "-//W3C//DTD SVG 1.1//EN" "http://www.w3.org/Graphics/SVG/1.1/DTD/svg11.dtd">
<svg version="1.1" id="Capa_1" xmlns="http://www.w3.org/2000/svg" xmlns:xlink="http://www.w3.org/1999/xlink" x="0px" y="0px"
	 width="704.213px" height="704.213px" viewBox="0 0 704.213 704.213" style="enable-background:new 0 0 704.213 704.213;"
	 xml:space="preserve">
<g>
	<path d="M652.617,154.438c10.832-14.11,5.11-25.521-12.728-25.521H370.289l-2.764-0.354h-86.139l-59.3-121.976
		C220.769,2.957,216.622,0,212.701,0H53.12c-3.857,0-7.007,3.118-7.007,7.039v14.978c0,3.889,3.15,7.007,6.942,7.007h140.939
		c3.825,0,8.003,2.925,9.321,6.718l45.03,92.823h-41.526l-0.45,0.354h-64.057c-17.549,0-23.303,11.667-12.696,26.099
		l242.312,328.708l-3.183,192.204h-70.067v28.284h175.266v-28.284h-77.106l3.182-192.204L652.617,154.438z"/>
</g>
<g>
</g>
<g>
</g>
<g>
</g>
<g>
</g>
<g>
</g>
<g>
</g>
<g>
</g>
<g>
</g>
<g>
</g>
<g>
</g>
<g>
</g>
<g>
</g>
<g>
</g>
<g>
</g>
<g>
</g>
</svg>
