<?xml version="1.0" encoding="iso-8859-1"?>
<!-- Generator: Adobe Illustrator 19.0.0, SVG Export Plug-In . SVG Version: 6.00 Build 0)  -->
<svg version="1.1" id="Layer_1" xmlns="http://www.w3.org/2000/svg" xmlns:xlink="http://www.w3.org/1999/xlink" x="0px" y="0px"
	 viewBox="0 0 490 490" style="enable-background:new 0 0 490 490;" xml:space="preserve">
<g>
	<polygon style="fill:#5DE0BF;" points="281.432,86.27 193.16,18.833 104.887,86.27 	"/>
	<polygon style="fill:#76FFD9;" points="219.014,86.27 193.162,18.833 167.307,86.27 	"/>
	<polygon style="fill:#00C395;" points="193.162,18.834 193.16,18.833 104.887,86.27 135.996,86.27 180.275,52.442 	"/>
	<path style="fill:#FFC843;" d="M282.883,149.264c3.914-2.255,8.457-3.554,13.311-3.554c8.258,0,15.637,3.742,20.52,9.615
		c4.883-5.873,12.262-9.615,20.523-9.615c1.221,0,2.42,0.089,3.598,0.247c0.435-1.96,0.674-3.995,0.674-6.086
		c0-15.432-12.508-27.942-27.936-27.942c-3.33,0-6.523,0.585-9.486,1.656c-2.963-1.071-6.156-1.656-9.486-1.656
		c-11.012,0-20.529,6.373-25.08,15.63C277.17,131.929,282.436,139.966,282.883,149.264z"/>
	<path style="fill:#FFFFFF;" d="M362.566,180.334c0.832-2.564,1.293-5.293,1.293-8.132c0-14.631-11.92-26.492-26.623-26.492
		c-8.262,0-15.641,3.742-20.523,9.615c-4.883-5.873-12.262-9.615-20.52-9.615c-4.854,0-9.397,1.299-13.311,3.554
		c-0.676-14.034-12.32-25.206-26.59-25.206c-8.26,0-15.641,3.742-20.523,9.615c-4.881-5.873-12.262-9.615-20.521-9.615
		c-14.703,0-26.621,11.86-26.621,26.491c0,0.057,0.004,0.113,0.004,0.17c-4.381-3.148-9.758-5.01-15.57-5.01
		c-14.701,0-26.623,11.86-26.623,26.492c0,2.839,0.461,5.569,1.293,8.132H362.566z"/>
	<path style="fill:#C1C8D2;" d="M168.072,180.334c-0.695-2.371-1.076-4.874-1.076-7.468c0-11.253,6.959-20.883,16.824-24.879
		c-3.293-1.454-6.928-2.276-10.76-2.276c-14.701,0-26.623,11.86-26.623,26.492c0,2.839,0.461,5.569,1.293,8.132H168.072z"/>
	<path style="fill:#FFFFFF;" d="M379.57,180.335c5.477,0,7.182,3.52,3.791,7.819L261.313,342.962c-3.389,4.3-8.938,4.3-12.328,0
		L126.936,188.154c-3.391-4.3-1.686-7.82,3.789-7.82L379.57,180.335z"/>
	<polygon style="fill:#FFC843;" points="146.438,180.334 255.148,318.226 363.859,180.334 	"/>
	<polygon style="fill:#FFA816;" points="180.135,223.079 239.795,298.751 180.136,223.079 	"/>
	<polygon style="fill:#FFB400;" points="211.273,223.079 270.717,298.478 270.502,298.751 330.16,223.08 	"/>
	<polygon style="fill:#FFB400;" points="177.574,180.334 146.438,180.334 180.136,223.079 211.273,223.079 	"/>
	<polygon style="fill:#FFA816;" points="211.273,223.079 180.136,223.079 239.795,298.751 270.502,298.751 270.717,298.478 	"/>
	<path style="fill:#76FFD9;" d="M217.871,482.5c-1.689,0-3.266-0.859-4.182-2.279c-0.916-1.422-1.049-3.211-0.354-4.752
		c7.371-16.297,23.783-26.828,41.813-26.828s34.44,10.53,41.811,26.828c0.697,1.541,0.564,3.33-0.354,4.752
		c-0.916,1.42-2.492,2.279-4.184,2.279H217.871z"/>
	<path style="fill:#5DE0BF;" d="M241.283,480.221c-0.916-1.422-1.049-3.211-0.354-4.752c5.426-11.996,15.754-20.861,28.016-24.708
		c-4.397-1.379-9.039-2.12-13.797-2.12c-18.029,0-34.441,10.53-41.813,26.828c-0.695,1.541-0.563,3.33,0.354,4.752
		c0.916,1.42,2.492,2.279,4.182,2.279h27.594C243.775,482.5,242.199,481.641,241.283,480.221z"/>
	<path style="fill:#76FFD9;" d="M248.984,342.962c3.391,4.3,8.939,4.3,12.328,0l34.855-44.211h-82.039L248.984,342.962z"/>
	<path style="fill:#5DE0BF;" d="M239.996,298.751h-25.867l34.855,44.211c3.391,4.3,8.939,4.3,12.328,0l6.77-8.586L239.996,298.751z"
		/>
	<path style="fill:#434C54;" d="M391.539,179.359c-2.012-4.146-6.373-6.524-11.969-6.524h-8.23c0.004-0.211,0.02-0.421,0.02-0.633
		c0-14.628-9.326-27.128-22.365-31.911c0.002-0.141,0.014-0.278,0.014-0.419c0-18.313-13.961-33.427-31.797-35.256
		c5.473-6.39,13.775-10.611,21.252-12.2c4.053-0.861,6.639-4.844,5.777-8.896c-0.863-4.053-4.854-6.637-8.896-5.776
		c-18.439,3.92-30.391,15.307-35.785,27.037c-1.635-0.23-3.291-0.351-4.959-0.351c-11.359,0-21.477,5.383-27.963,13.723
		c-3.266-1.031-6.74-1.594-10.344-1.594c-7.5,0-14.666,2.428-20.523,6.827c-5.855-4.399-13.021-6.827-20.521-6.827
		c-5.221,0-10.16,1.196-14.588,3.293V93.769h80.771c3.215,0,6.074-2.05,7.104-5.097c1.031-3.046,0.004-6.411-2.551-8.363
		l-28.436-21.724c-3.289-2.514-7.996-1.884-10.512,1.407c-2.516,3.292-1.885,7.999,1.406,10.513l10.816,8.264H127.059l49.627-37.913
		L193.16,27.75l16.477,13.109l17.809,13.604c3.291,2.515,7.998,1.885,10.512-1.407c2.516-3.292,1.885-7.998-1.406-10.513
		L200.66,15.125V7.5c0-4.142-3.357-7.5-7.5-7.5s-7.5,3.358-7.5,7.5v7.625L100.334,80.31c-2.557,1.953-3.582,5.317-2.553,8.363
		c1.031,3.046,3.889,5.097,7.105,5.097h80.773v39.913c-1.09,1.888-2.023,3.877-2.736,5.969c-3.168-0.953-6.482-1.442-9.863-1.442
		c-18.816,0-34.123,15.249-34.123,33.992c0,0.212,0.016,0.421,0.02,0.632h-8.232c-5.596,0-9.957,2.378-11.967,6.523
		c-2.012,4.147-1.178,9.045,2.287,13.44l122.049,154.809c1.299,1.647,2.854,2.971,4.555,3.97v90.096
		c-17.928,2.533-33.602,14.023-41.148,30.712c-1.75,3.875-1.418,8.324,0.887,11.901c2.307,3.578,6.227,5.714,10.484,5.714h36.125
		c4.143,0,7.5-3.358,7.5-7.5s-3.357-7.5-7.5-7.5h-31.982c6.799-11.572,19.404-18.859,33.135-18.859
		c13.729,0,26.332,7.286,33.133,18.859h-8.285c-4.143,0-7.5,3.358-7.5,7.5s3.357,7.5,7.5,7.5h12.426
		c4.258,0,8.178-2.136,10.484-5.711c2.311-3.579,2.641-8.031,0.887-11.911c-7.547-16.684-23.219-28.173-41.145-30.706v-90.083
		c1.703-1,3.254-2.334,4.553-3.983l62.254-78.962c2.564-3.253,2.006-7.969-1.246-10.533c-3.254-2.564-7.971-2.007-10.533,1.246
		l-25.146,31.895h-74.764l-81.533-103.417h66.764c4.143,0,7.5-3.358,7.5-7.5s-3.357-7.5-7.5-7.5h-49.041
		c-0.008-0.211-0.018-0.42-0.018-0.632c0-10.472,8.578-18.992,19.123-18.992c4.045,0,7.916,1.245,11.193,3.6
		c2.283,1.641,5.295,1.867,7.799,0.583c2.504-1.284,4.078-3.86,4.078-6.674c0-0.085-0.002-0.169-0.004-0.256
		c0.047-10.433,8.605-18.905,19.121-18.905c5.727,0,11.104,2.518,14.752,6.909c1.426,1.714,3.539,2.706,5.768,2.706
		c0.002,0,0.002,0,0.002,0c2.229,0,4.342-0.991,5.768-2.706c3.65-4.391,9.027-6.91,14.756-6.91c10.221,0,18.609,7.936,19.098,18.067
		c0.127,2.611,1.602,4.968,3.896,6.221c2.293,1.253,5.076,1.222,7.34-0.083c2.898-1.67,6.205-2.553,9.566-2.553
		c5.725,0,11.102,2.518,14.752,6.91c1.426,1.714,3.539,2.705,5.768,2.705s4.342-0.991,5.768-2.705
		c3.65-4.392,9.029-6.91,14.756-6.91c10.545,0,19.123,8.52,19.123,18.992c0,0.212-0.012,0.422-0.018,0.633l-126.346-0.001
		c-4.143,0-7.5,3.358-7.5,7.5s3.357,7.5,7.5,7.5l144.066,0.001l-39.83,50.521c-2.564,3.253-2.008,7.969,1.246,10.533
		c1.375,1.084,3.012,1.611,4.639,1.611c2.217,0,4.414-0.98,5.895-2.857l43.238-54.845
		C392.715,188.404,393.549,183.505,391.539,179.359z M280.703,306.251l-25.281,32.069c-0.107,0.135-0.201,0.228-0.273,0.29
		c-0.074-0.063-0.168-0.156-0.275-0.292l-25.281-32.067H280.703z M316.713,145.038c-5.857-4.399-13.021-6.828-20.52-6.828
		c-2.619,0-5.223,0.302-7.756,0.891c-1.822-5.096-4.834-9.607-8.684-13.238c3.725-3.955,8.996-6.434,14.846-6.434
		c1.238,0,2.461,0.115,3.664,0.333c1.096,1.355,2.662,2.339,4.514,2.667c0.441,0.079,0.883,0.117,1.316,0.117
		c2.297,0,4.42-1.062,5.816-2.785c1.201-0.218,2.424-0.333,3.662-0.333c10.764,0,19.588,8.372,20.359,18.945
		C327.645,138.978,321.701,141.29,316.713,145.038z"/>
	<circle style="fill:#434C54;" cx="224.996" cy="241" r="7.5"/>
	<circle style="fill:#434C54;" cx="265.496" cy="271.5" r="7.5"/>
	<circle style="fill:#434C54;" cx="284.496" cy="241.5" r="7.5"/>
	<circle style="fill:#434C54;" cx="246.496" cy="253.5" r="7.5"/>
	<path style="fill:#434C54;" d="M221.727,141.5h-8.461c-4.143,0-7.5,3.358-7.5,7.5s3.357,7.5,7.5,7.5h8.461
		c4.143,0,7.5-3.358,7.5-7.5S225.869,141.5,221.727,141.5z"/>
	<path style="fill:#434C54;" d="M260.727,151.5h-8.461c-4.143,0-7.5,3.358-7.5,7.5s3.357,7.5,7.5,7.5h8.461
		c4.143,0,7.5-3.358,7.5-7.5S264.869,151.5,260.727,151.5z"/>
</g>
<g>
</g>
<g>
</g>
<g>
</g>
<g>
</g>
<g>
</g>
<g>
</g>
<g>
</g>
<g>
</g>
<g>
</g>
<g>
</g>
<g>
</g>
<g>
</g>
<g>
</g>
<g>
</g>
<g>
</g>
</svg>
